<?xml version="1.0" encoding="UTF-8" standalone="no"?>
<!DOCTYPE svg PUBLIC "-//W3C//DTD SVG 1.1//EN" "http://www.w3.org/Graphics/SVG/1.1/DTD/svg11.dtd">
<svg width="100%" height="100%" viewBox="0 0 80 80" version="1.1" xmlns="http://www.w3.org/2000/svg" xmlns:xlink="http://www.w3.org/1999/xlink" xml:space="preserve" xmlns:serif="http://www.serif.com/" style="fill-rule:evenodd;clip-rule:evenodd;stroke-miterlimit:10;">
    <g transform="matrix(1,0,0,1,1,0)">
        <rect x="23" y="14" width="8" height="52" style="fill:none;stroke:rgb(14,26,54);stroke-width:2px;"/>
    </g>
    <g transform="matrix(1,0,0,1,1,0)">
        <path d="M39,66L31,66L31,14L39,14" style="fill:none;fill-rule:nonzero;stroke:rgb(14,26,54);stroke-width:2px;"/>
    </g>
    <g transform="matrix(1,0,0,1,1,0)">
        <rect x="47" y="14" width="8" height="52" style="fill:none;stroke:rgb(14,26,54);stroke-width:2px;"/>
    </g>
    <g transform="matrix(1,0,0,1,1,0)">
        <rect x="31" y="26" width="16" height="12" style="fill:none;stroke:rgb(14,26,54);stroke-width:2px;"/>
    </g>
    <g transform="matrix(1,0,0,1,1,0)">
        <path d="M39,41L39,66L47,66L47,14L39,14L39,23" style="fill:none;fill-rule:nonzero;stroke:rgb(14,26,54);stroke-width:2px;"/>
    </g>
</svg>
