<?xml version="1.0" encoding="UTF-8" standalone="no"?>
<!DOCTYPE svg PUBLIC "-//W3C//DTD SVG 1.1//EN" "http://www.w3.org/Graphics/SVG/1.1/DTD/svg11.dtd">
<svg width="100%" height="100%" viewBox="0 0 80 80" version="1.1" xmlns="http://www.w3.org/2000/svg" xmlns:xlink="http://www.w3.org/1999/xlink" xml:space="preserve" xmlns:serif="http://www.serif.com/" style="fill-rule:evenodd;clip-rule:evenodd;stroke-miterlimit:10;">
    <g transform="matrix(1,0,0,1,1,-1)">
        <path d="M63,42C62.308,54.635 51.807,64.667 39,64.667C26.193,64.667 15.728,54.635 15.036,42" style="fill:none;fill-rule:nonzero;stroke:rgb(14,26,54);stroke-width:2px;"/>
        <path d="M15.009,40C15.362,27.053 25.968,16.667 39,16.667C52.032,16.667 62.638,27.054 62.991,40.001" style="fill:none;fill-rule:nonzero;stroke:rgb(14,26,54);stroke-width:2px;"/>
        <path d="M58.956,42C58.267,52.409 49.58,60.667 39,60.667C28.42,60.667 19.733,52.409 19.044,42.001" style="fill-rule:nonzero;stroke:rgb(14,26,54);stroke-width:1px;stroke-linejoin:round;stroke-miterlimit:2;"/>
        <path d="M19.011,40C19.364,29.28 28.195,20.667 39,20.667C49.805,20.667 58.636,29.28 58.989,40" style="fill-rule:nonzero;stroke:rgb(14,26,54);stroke-width:1px;stroke-linejoin:round;stroke-miterlimit:2;"/>
        <path d="M5,41L12,41C13.333,41 15,39 15,39" style="fill:none;fill-rule:nonzero;stroke:rgb(14,26,54);stroke-width:2px;"/>
        <path d="M5,41L12,41C13.333,41 15,43 15,43" style="fill:none;fill-rule:nonzero;stroke:rgb(14,26,54);stroke-width:2px;"/>
        <path d="M73,41L66,41C64.667,41 63,39 63,39" style="fill:none;fill-rule:nonzero;stroke:rgb(14,26,54);stroke-width:2px;"/>
        <path d="M73,41L66,41C64.667,41 63,43 63,43" style="fill:none;fill-rule:nonzero;stroke:rgb(14,26,54);stroke-width:2px;"/>
    </g>
</svg>
